<?xml version="1.0" encoding="utf-8"?>
<!-- Generator: Adobe Illustrator 18.0.0, SVG Export Plug-In . SVG Version: 6.00 Build 0)  -->
<!DOCTYPE svg PUBLIC "-//W3C//DTD SVG 1.1//EN" "http://www.w3.org/Graphics/SVG/1.1/DTD/svg11.dtd">
<svg version="1.1" id="Layer_1" xmlns="http://www.w3.org/2000/svg" xmlns:xlink="http://www.w3.org/1999/xlink" x="0px" y="0px"
	 viewBox="0 0 64 64" enable-background="new 0 0 64 64" xml:space="preserve">
<path d="M62,53c-4.4,0-8-3.6-8-8V28c0-10.1-6.8-18.5-16-21.2V6c0-3.3-2.7-6-6-6s-6,2.7-6,6v0.8C16.8,9.5,10,17.9,10,28v17
	c0,4.4-3.6,8-8,8v4h21.2c0.9,4,4.5,7,8.8,7s7.9-3,8.8-7H62V53z M30,6c0-1.1,0.9-2,2-2s2,0.9,2,2v0.1C33.3,6,32.7,6,32,6S30.7,6,30,6
	L30,6z M32,60c-2,0-3.8-1.2-4.6-3h9.2C35.8,58.8,34,60,32,60z M10.9,53c1.9-2.1,3.1-4.9,3.1-8V28c0-9.9,8.1-18,18-18s18,8.1,18,18
	v17c0,3.1,1.2,5.9,3.1,8H10.9z"/>
</svg>
